<?xml version="1.0" encoding="UTF-8"?>
<svg width="64px" height="64px" viewBox="0 0 64 64" version="1.1" xmlns="http://www.w3.org/2000/svg" xmlns:xlink="http://www.w3.org/1999/xlink">
    <title>favicon</title>
    <defs>
        <linearGradient x1="78.5116466%" y1="10.0526377%" x2="47.4022434%" y2="100%" id="linearGradient-1">
            <stop stop-color="#33DCFF" offset="0%"></stop>
            <stop stop-color="#00C2FF" offset="100%"></stop>
        </linearGradient>
    </defs>
    <g id="favicon" stroke="none" stroke-width="1" fill="none" fill-rule="evenodd">
        <rect id="Rectangle" fill="url(#linearGradient-1)" x="0" y="0" width="64" height="64"></rect>
        <g id="e.ai" transform="translate(19, 16)" fill="#F8FBFC" fill-rule="nonzero">
            <path d="M13.9931507,32 C11.1164384,32 8.63013699,31.3121495 6.53424658,29.9364486 C4.43835616,28.5607477 2.82534247,26.6666667 1.69520548,24.2542056 C0.565068493,21.8417445 0,19.0803738 0,15.9700935 C0,12.6006231 0.585616438,9.72461059 1.75684932,7.34205607 C2.92808219,4.95950156 4.56164384,3.14018692 6.65753425,1.88411215 C8.75342466,0.628037383 11.1986301,0 13.9931507,0 C16.3561644,0 18.5239726,0.513395639 20.4965753,1.54018692 C22.4691781,2.56697819 24.0462329,4.15202492 25.2277397,6.2953271 C26.4092466,8.43862928 27,11.1850467 27,14.5345794 C27,15.0130841 26.984589,15.5663551 26.9537671,16.1943925 C26.9229452,16.8224299 26.8767123,17.4654206 26.8150685,18.1233645 L5.48630137,18.1233645 C5.69178082,19.9775701 6.16438356,21.6024922 6.90410959,22.9981308 C7.64383562,24.3937695 8.61986301,25.4853583 9.83219178,26.2728972 C11.0445205,27.0604361 12.4726027,27.4542056 14.1164384,27.4542056 C15.4520548,27.4542056 16.6900685,27.2249221 17.8304795,26.7663551 C18.9708904,26.3077882 20.0342466,25.6 21.0205479,24.6429907 L24.1643836,28.0523364 C22.9931507,29.188785 21.5393836,30.1308411 19.8030822,30.8785047 C18.0667808,31.6261682 16.130137,32 13.9931507,32 Z M5.19230769,13.4193548 L21.8076923,13.4193548 C21.8076923,11.6351207 21.5064592,10.0405896 20.903993,8.63576159 C20.3015267,7.23093356 19.4189665,6.128605 18.2563124,5.3287759 C17.0936583,4.52894681 15.6773341,4.12903226 14.00734,4.12903226 C11.6608925,4.12903226 9.64738696,4.86733604 7.96682325,6.3439436 C6.28625954,7.82055116 5.36142102,10.1790216 5.19230769,13.4193548 Z" id="Shape"></path>
        </g>
    </g>
</svg>